<svg width="219" height="52" viewBox="0 0 219 52" fill="none" xmlns="http://www.w3.org/2000/svg">
<path d="M31.0754 17.7779L25.3432 22.6167L24.1699 0C25.4885 0.0238951 26.7288 0.119475 27.8909 0.286741L29.2317 0.537639C31.0196 0.943856 32.5616 1.55318 33.8578 2.36561C36.2937 3.91879 37.5116 5.89014 37.5116 8.27965C37.5116 9.78504 37.0759 11.1471 36.2378 12.4732C35.4333 13.7277 33.9248 15.3048 31.7459 17.1686C31.5 17.3837 31.2766 17.5868 31.0754 17.7779Z" fill="#B08E40"/>
<path d="M31.6807 18.8524C33.4462 17.0364 34.9435 15.7819 36.1726 15.089C37.4129 14.3721 38.7203 14.0137 40.1282 14.0137C42.4077 14.0376 44.2849 15.0651 45.7599 17.0961C46.5421 18.1953 47.1231 19.4856 47.503 20.9671L47.7377 22.0783C47.8941 22.9624 47.9835 23.9182 48.0059 24.9457L26.8535 23.727L31.1108 19.4259C31.2896 19.2347 31.4795 19.0436 31.6807 18.8524Z" fill="#B08E40"/>
<path d="M30.5059 44.6962C29.4667 45.4489 26.5838 48.6748 25.0418 50.682C24.8072 51.0045 24.4719 51.1479 24.1367 51.1838L25.4106 26.5599L48.0379 25.2695C48.0379 25.3173 48.0379 25.3651 48.0379 25.4129C48.0714 28.818 47.3674 31.5778 45.926 33.6209C44.451 35.6639 42.5738 36.7033 40.2608 36.6675C38.8752 36.6675 37.6796 36.3688 36.6739 35.7714C35.6683 35.1263 34.1933 33.9076 32.2825 32.0079C30.7405 30.5026 29.3661 29.3914 28.1258 28.6029L26.8185 27.7427C27.3213 33.0832 29.5673 38.1729 30.7741 40.5743C30.8635 40.7416 30.9417 40.8969 31.0087 41.0403C31.3775 41.8647 31.9138 43.5851 30.5059 44.6604V44.6962Z" fill="#B08E40"/>
<path d="M11.7677 12.4732C10.9296 11.1471 10.5273 9.78504 10.5273 8.27965C10.5273 5.91403 11.7341 3.94269 14.1812 2.40146C15.4774 1.56513 17.0082 0.943856 18.7737 0.537639L20.1146 0.286741C21.2767 0.119475 22.5282 0.0238951 23.8691 0L22.6958 22.6167L16.9636 17.7779C16.7401 17.5868 16.5054 17.3837 16.2596 17.1686C14.1142 15.3048 12.6169 13.7397 11.7677 12.4732Z" fill="#B08E40"/>
<path d="M16.9305 19.4259L21.1543 23.727L0.00195312 24.9457C0.046649 23.9182 0.147215 22.9624 0.30365 22.0783L0.538304 20.9671C0.918219 19.4856 1.49927 18.1953 2.28144 17.0961C3.75641 15.0412 5.63364 14.0137 7.91313 14.0137C9.32105 14.0137 10.6284 14.3721 11.8687 15.089C13.0979 15.7819 14.5952 17.0364 16.3607 18.8524C16.5394 19.0436 16.7294 19.2347 16.9305 19.4259Z" fill="#B08E40"/>
<path d="M7.77823 36.6675C5.45404 36.6675 3.56564 35.64 2.11302 33.585C0.671581 31.542 -0.0323791 28.7821 0.00114279 25.3771C0.00114279 25.3293 0.00114279 25.2934 0.00114279 25.2695L22.6284 26.5599L23.9023 51.1479C23.5335 51.1479 23.1983 50.9687 22.9637 50.682C21.4217 48.6748 18.5388 45.4489 17.4996 44.6604C16.1252 43.5493 16.6615 41.8647 17.0303 41.0403C17.0973 40.8969 17.1644 40.7535 17.2649 40.5743V40.5385C18.4717 38.1729 20.7177 33.0832 21.2205 27.7427L19.8796 28.6029C18.6729 29.3556 17.2985 30.5026 15.7564 32.0079C13.8457 33.9076 12.3707 35.1263 11.3651 35.7714C10.3594 36.3688 9.1638 36.6675 7.77823 36.6675Z" fill="#B08E40"/>
<path d="M68.0183 23.763C67.2473 24.5515 66.3758 25.1967 65.4036 25.6268C64.4315 26.0928 63.3923 26.3078 62.2191 26.3078C61.0793 26.3078 60.0066 26.0569 59.0009 25.591C57.9953 25.125 57.1237 24.5157 56.3862 23.6913C55.6488 22.9028 55.0454 21.9709 54.6096 20.8956C54.1738 19.8203 53.9727 18.6733 53.9727 17.4547C53.9727 16.236 54.1738 15.0891 54.6096 14.0138C55.0454 12.9385 55.6488 12.0066 56.3862 11.2181C57.1237 10.3937 57.9953 9.78437 59.0009 9.31842C60.0066 8.85246 61.0793 8.60156 62.2191 8.60156C63.694 8.60156 65.0349 8.95999 66.2417 9.71268C67.4485 10.4295 68.4206 11.3973 69.1581 12.6159L69.5268 13.2611L66.778 15.1966L66.3758 14.5514C65.94 13.8346 65.3366 13.2611 64.6326 12.7952C63.8951 12.365 63.0906 12.15 62.2191 12.15C61.5486 12.15 60.9117 12.2934 60.3083 12.5443C59.7273 12.831 59.2021 13.2133 58.7328 13.6912C58.2858 14.1691 57.9394 14.7307 57.6936 15.3758C57.4254 16.021 57.2913 16.7139 57.2913 17.4547C57.2913 18.1954 57.4254 18.8884 57.6936 19.5336C57.9394 20.1787 58.2858 20.7403 58.7328 21.2182C59.2021 21.6961 59.7273 22.0784 60.3083 22.3651C60.9117 22.616 61.5486 22.7594 62.2191 22.7594C62.7331 22.7594 63.2359 22.6758 63.7275 22.5085C64.1968 22.3651 64.6326 22.1381 65.0349 21.8275C65.4372 21.5169 65.8059 21.1584 66.1411 20.7522C66.2082 20.6327 66.2752 20.5133 66.3422 20.3938H62.4872V17.0963H70.5325L70.499 17.6697C70.4654 18.8526 70.2308 19.9995 69.795 21.039C69.3592 22.0784 68.7558 23.0103 68.0183 23.763Z" fill="white"/>
<path d="M129.664 14.8382H129.53C127.15 14.8382 126.747 17.3472 126.747 17.3472V25.9852H123.328V11.6482H126.747V12.2217C126.77 12.1978 126.781 12.1858 126.781 12.1858C127.138 11.9708 127.574 11.7677 128.088 11.5765C128.625 11.3853 129.228 11.2778 129.898 11.2539C130.938 11.2539 131.809 11.4331 132.513 11.7915C133.206 12.1261 133.776 12.5442 134.223 13.046C134.647 13.5717 134.971 14.1213 135.195 14.6948C135.396 15.2683 135.53 15.782 135.597 16.236C135.642 16.4511 135.675 16.6422 135.698 16.8095C135.72 17.0007 135.731 17.1679 135.731 17.3113V25.9852H132.312V17.9565C132.312 16.3436 131.206 14.8382 129.697 14.8382H129.664Z" fill="white"/>
<path d="M86.2539 19.7484V9.24647L89.8743 8.20703V18.9957C89.8743 21.4688 90.5782 22.4007 92.9918 22.4007H93.8634L93.9304 25.985H92.9918C87.863 25.985 86.2539 23.1534 86.2539 19.7484Z" fill="white"/>
<path fill-rule="evenodd" clip-rule="evenodd" d="M115.719 22.4008C116.926 22.4008 118.032 21.7556 118.669 20.6445L121.619 22.4724C120.412 24.6947 118.133 26.0925 115.719 26.0925C111.965 26.0925 108.881 22.795 108.881 18.7806C108.881 14.7663 111.965 11.4688 115.719 11.4688C115.719 11.4688 115.742 11.4688 115.786 11.4688C116.289 11.4688 120.848 11.6121 122.323 16.7735L114.177 21.899L114.077 21.9706L114.177 22.0065C114.669 22.2693 115.183 22.4008 115.719 22.4008ZM112.334 19.3183L118.233 15.4831C117.63 14.9096 116.826 14.5512 115.954 14.5512C114.11 14.5512 112.233 16.2 112.233 18.4939C112.233 18.7806 112.267 19.0554 112.334 19.3183Z" fill="white"/>
<path fill-rule="evenodd" clip-rule="evenodd" d="M85.147 18.782C85.147 22.8681 82.0629 26.1656 78.2415 26.1656C74.42 26.1656 71.3359 22.8322 71.3359 18.782C71.3359 14.696 74.42 11.3984 78.2415 11.3984C82.0629 11.3984 85.147 14.696 85.147 18.782ZM81.6607 18.6745C81.6607 16.6673 80.1522 15.0185 78.2415 15.0185C76.3307 15.0185 74.8222 16.6673 74.8222 18.6745C74.8222 20.7175 76.3307 22.3663 78.2415 22.3663C80.1522 22.3663 81.6607 20.7175 81.6607 18.6745Z" fill="white"/>
<path fill-rule="evenodd" clip-rule="evenodd" d="M107.707 7.84961L107.674 25.986H104.254V25.2691C103.249 25.8785 102.076 26.2369 100.802 26.2369C97.0137 26.2369 93.9297 22.9394 93.9297 18.8533C93.9297 14.8031 97.0137 11.4697 100.802 11.4697C102.076 11.4697 103.249 11.8281 104.254 12.4733V7.84961H107.707ZM100.802 22.4376C102.712 22.4376 104.254 20.7888 104.254 18.7816V18.7099C104.221 16.7027 102.712 15.0898 100.802 15.0898C98.9245 15.0898 97.3824 16.7386 97.3824 18.7816C97.3824 20.7888 98.9245 22.4376 100.802 22.4376Z" fill="white"/>
<path d="M176.864 22.3665L176.931 25.9508H176.026C170.83 25.9508 169.221 23.1192 169.221 19.6783L169.254 9.57069L172.841 8.53125V18.9256C172.841 21.4346 173.579 22.3665 176.026 22.3665H176.864Z" fill="white"/>
<path d="M199.055 14.8024C197.11 14.8024 195.568 16.4512 195.568 18.4942C195.568 20.5373 197.144 22.2219 199.055 22.2219C200.228 22.2219 201.267 21.5408 201.904 20.5731L204.452 23.2613C203.178 24.9459 201.234 26.0212 199.055 26.0212C195.2 26.0212 192.082 22.6878 192.082 18.6018C192.082 14.4798 195.2 11.1465 199.055 11.1465C201.267 11.1465 203.245 12.2576 204.519 14.0139L202.005 16.6304C201.435 15.5193 200.328 14.8024 199.055 14.8024Z" fill="white"/>
<path fill-rule="evenodd" clip-rule="evenodd" d="M146.123 11.3984C149.844 11.3984 152.861 14.6243 152.861 18.6386C152.861 22.6172 149.844 25.843 146.123 25.843C144.883 25.843 143.743 25.4846 142.771 24.9111V28.8896L139.385 29.8932L139.352 11.6852H142.737V12.3662C143.743 11.7569 144.883 11.3984 146.123 11.3984ZM146.089 22.1154C147.967 22.1154 149.475 20.5025 149.475 18.5311C149.475 16.5598 147.967 14.9469 146.089 14.9469C144.246 14.9469 142.737 16.5239 142.737 18.5311C142.737 18.567 142.771 18.8179 142.771 18.8179C142.905 20.6817 144.346 22.1154 146.089 22.1154Z" fill="white"/>
<path fill-rule="evenodd" clip-rule="evenodd" d="M167.308 11.721V25.8789H163.922V24.8753C162.917 25.4846 161.777 25.843 160.57 25.843C156.816 25.843 153.799 22.6172 153.799 18.6386C153.799 14.6243 156.816 11.3984 160.57 11.3984C161.777 11.3984 162.917 11.7569 163.922 12.3662V11.721H167.308ZM163.922 18.5311C163.922 16.5598 162.414 14.9469 160.537 14.9469C158.693 14.9469 157.185 16.5598 157.185 18.5311C157.185 20.5025 158.693 22.1154 160.537 22.1154C162.414 22.1154 163.922 20.5025 163.922 18.5311Z" fill="white"/>
<path fill-rule="evenodd" clip-rule="evenodd" d="M190.439 11.721V25.8789H187.053V24.8753C186.048 25.4846 184.908 25.843 183.701 25.843C179.947 25.843 176.93 22.6172 176.93 18.6386C176.93 14.6243 179.947 11.3984 183.701 11.3984C184.908 11.3984 186.048 11.7569 187.053 12.3662V11.721H190.439ZM187.02 18.5311C187.02 16.5598 185.511 14.9469 183.668 14.9469C181.824 14.9469 180.315 16.5598 180.315 18.5311C180.315 20.5025 181.824 22.1154 183.668 22.1154C185.511 22.1154 187.02 20.5025 187.02 18.5311Z" fill="white"/>
<path fill-rule="evenodd" clip-rule="evenodd" d="M212.296 22.33C213.503 22.33 214.643 21.6848 215.28 20.5737L218.263 22.4017C217.023 24.6597 214.744 26.0576 212.296 26.0576C208.475 26.0576 205.357 22.7242 205.357 18.6382C205.357 14.588 208.475 11.2546 212.296 11.2188C212.296 11.2188 212.319 11.2188 212.364 11.2188C212.866 11.2188 217.492 11.398 219.001 16.631L210.721 21.8282L210.62 21.8999L210.721 21.9357C211.213 22.1985 211.738 22.33 212.296 22.33ZM208.844 19.2117L214.844 15.3048C214.241 14.7313 213.436 14.3371 212.531 14.3371C210.654 14.3371 208.777 16.0217 208.777 18.3514C208.777 18.6621 208.799 18.9488 208.844 19.2117Z" fill="white"/>
</svg>
